<?xml version="1.0" encoding="utf-8"?>
<!-- Generator: Adobe Illustrator 21.1.0, SVG Export Plug-In . SVG Version: 6.00 Build 0)  -->
<svg version="1.1" id="Layer_1" xmlns="http://www.w3.org/2000/svg" xmlns:xlink="http://www.w3.org/1999/xlink" x="0px" y="0px"
	 viewBox="0 0 70 70" style="enable-background:new 0 0 70 70;" xml:space="preserve">
<style type="text/css">
.background{
  background-color: #00B0F0;
  /*background-image: */
}
	.st0{fill:white;}
</style>
<path class="st0" d="M35.3,53.2c-10.1,0-14.7-5.1-14.7-8.9c0-1.9,1.5-3.3,3.5-3.3c4.3,0,3.2,6.5,11.3,6.5c4.1,0,6.5-2.5,6.5-4.8
	c0-1.4-0.8-3-3.5-3.6l-9-2.3c-7.2-1.8-8.5-5.9-8.5-9.6c0-7.7,7.1-10.5,13.8-10.5c6.2,0,13.6,3.4,13.6,8.1c0,2-1.7,3.1-3.6,3.1
	c-3.7,0-3.1-5.2-10.5-5.2c-3.7,0-5.6,1.7-5.6,4.1c0,2.4,2.9,3.2,5.4,3.8l6.6,1.5c7.3,1.6,9.2,5.9,9.2,10
	C49.8,48.3,44.9,53.2,35.3,53.2 M63.2,39.8c0.3-1.6,0.4-3.3,0.4-5c0-15.8-12.7-28.6-28.4-28.6c-1.7,0-3.3,0.1-4.9,0.4
	c-2.5-1.4-5.3-2.2-8.4-2.2C12.5,4.5,5,12.1,5,21.5c0,3.1,0.8,5.9,2.2,8.4c-0.3,1.6-0.4,3.3-0.4,5c0,15.8,12.7,28.6,28.4,28.6
	c1.7,0,3.3-0.1,4.9-0.4c2.5,1.4,5.3,2.2,8.4,2.2c9.3,0,16.9-7.6,16.9-17C65.4,45.2,64.6,42.3,63.2,39.8"/>
</svg>
